<?xml version="1.0" encoding="UTF-8" standalone="no"?>
<svg
   xmlns:dc="http://purl.org/dc/elements/1.1/"
   xmlns:cc="http://creativecommons.org/ns#"
   xmlns:rdf="http://www.w3.org/1999/02/22-rdf-syntax-ns#"
   xmlns:svg="http://www.w3.org/2000/svg"
   xmlns="http://www.w3.org/2000/svg"
   xmlns:sodipodi="http://sodipodi.sourceforge.net/DTD/sodipodi-0.dtd"
   xmlns:inkscape="http://www.inkscape.org/namespaces/inkscape"
   version="1.1"
   id="svg3431"
   viewBox="0 0 162.13094 140.68595"
   height="39.7047mm"
   width="45.756954mm"
   inkscape:version="0.91 r13725"
   sodipodi:docname="N-Generator.svg">
  <sodipodi:namedview
     pagecolor="#ffffff"
     bordercolor="#666666"
     borderopacity="1"
     objecttolerance="10"
     gridtolerance="10"
     guidetolerance="10"
     inkscape:pageopacity="0"
     inkscape:pageshadow="2"
     inkscape:window-width="1920"
     inkscape:window-height="1027"
     id="namedview10"
     showgrid="false"
     inkscape:zoom="1.6406492"
     inkscape:cx="82.2845"
     inkscape:cy="70.342973"
     inkscape:window-x="0"
     inkscape:window-y="0"
     inkscape:window-maximized="1"
     inkscape:current-layer="svg3431" />
  <defs
     id="defs3433" />
  <metadata
     id="metadata3436">
    <rdf:RDF>
      <cc:Work
         rdf:about="">
        <dc:format>image/svg+xml</dc:format>
        <dc:type
           rdf:resource="http://purl.org/dc/dcmitype/StillImage" />
        <dc:title />
      </cc:Work>
    </rdf:RDF>
  </metadata>
  <path
     id="path3445"
     d="M 121.47157,140.0435 40.90609,140.18594 0.49999,70.485415 40.65937,0.642444 121.22485,0.5 l 40.4061,69.700525 z"
     style="opacity:1;fill:#ffffff;fill-opacity:1;fill-rule:nonzero;stroke:#000000;stroke-width:1;stroke-linecap:round;stroke-linejoin:round;stroke-miterlimit:4;stroke-dasharray:none;stroke-opacity:1"
     inkscape:connector-curvature="0" />
  <g
     id="text4247"
     style="font-style:normal;font-weight:normal;font-size:77.32718658px;line-height:0%;font-family:sans-serif;letter-spacing:0px;word-spacing:0px;fill:#000000;fill-opacity:1;stroke:none;stroke-width:1px;stroke-linecap:butt;stroke-linejoin:miter;stroke-opacity:1"
     transform="translate(-187.87311,-41.595645)">
    <path
       id="path4267"
       style="font-style:normal;font-variant:normal;font-weight:500;font-stretch:normal;font-family:'Century Schoolbook L';-inkscape-font-specification:'Century Schoolbook L Medium'"
       d="m 254.9037,83.48221 -15.9294,0 0,3.634378 1.93318,0 c 3.94368,0 5.72221,0.618618 7.1141,2.551797 l 0,32.864055 c 0,10.59382 -1.54655,12.83631 -8.96996,13.14562 l 0,3.63438 22.03825,0 0,-3.63438 c -7.34608,-0.30931 -8.89262,-2.5518 -8.89262,-13.14562 l 0,-28.688387 34.48792,46.550967 3.24774,0 0,-40.13281 c 0,-10.593825 1.54655,-12.836313 8.96996,-13.145622 l 0,-3.634378 -22.03825,0 0,3.634378 c 7.34608,0.309309 8.89263,2.551797 8.89263,13.145622 l 0,24.28074 -30.85355,-41.06074 z"
       inkscape:connector-curvature="0" />
  </g>
</svg>
